<svg width="32" height="32" viewBox="0 0 32 32" fill="none" xmlns="http://www.w3.org/2000/svg">
<g clip-path="url(#clip0_534_465)">
<path d="M0 4C0 2.93913 0.421427 1.92172 1.17157 1.17157C1.92172 0.421427 2.93913 0 4 0L28 0C29.0609 0 30.0783 0.421427 30.8284 1.17157C31.5786 1.92172 32 2.93913 32 4V28C32 29.0609 31.5786 30.0783 30.8284 30.8284C30.0783 31.5786 29.0609 32 28 32H4C2.93913 32 1.92172 31.5786 1.17157 30.8284C0.421427 30.0783 0 29.0609 0 28V4ZM11 24C10.9999 24.1928 11.0556 24.3814 11.1603 24.5433C11.265 24.7052 11.4142 24.8333 11.59 24.9124C11.7658 24.9914 11.9607 25.0179 12.1513 24.9888C12.3418 24.9596 12.5199 24.876 12.664 24.748L21.664 16.748C21.7697 16.6542 21.8544 16.539 21.9124 16.4101C21.9703 16.2811 22.0003 16.1414 22.0003 16C22.0003 15.8586 21.9703 15.7189 21.9124 15.5899C21.8544 15.461 21.7697 15.3458 21.664 15.252L12.664 7.252C12.5199 7.12401 12.3418 7.0404 12.1513 7.01124C11.9607 6.98208 11.7658 7.00861 11.59 7.08765C11.4142 7.16668 11.265 7.29484 11.1603 7.45671C11.0556 7.61857 10.9999 7.80724 11 8V24Z" fill="white"/>
</g>
<defs>
<clipPath id="clip0_534_465">
<rect width="32" height="32" fill="white"/>
</clipPath>
</defs>
</svg>
