<svg width="32" height="32" viewBox="0 0 32 32" fill="none" xmlns="http://www.w3.org/2000/svg">
<g clip-path="url(#clip0_534_467)">
<path d="M0 4C0 2.93913 0.421427 1.92172 1.17157 1.17157C1.92172 0.421427 2.93913 0 4 0L28 0C29.0609 0 30.0783 0.421427 30.8284 1.17157C31.5786 1.92172 32 2.93913 32 4V28C32 29.0609 31.5786 30.0783 30.8284 30.8284C30.0783 31.5786 29.0609 32 28 32H4C2.93913 32 1.92172 31.5786 1.17157 30.8284C0.421427 30.0783 0 29.0609 0 28V4ZM21 24V8C21.0001 7.80724 20.9444 7.61857 20.8397 7.45671C20.735 7.29484 20.5858 7.16668 20.41 7.08765C20.2342 7.00861 20.0393 6.98208 19.8487 7.01124C19.6582 7.0404 19.4801 7.12401 19.336 7.252L10.336 15.252C10.2303 15.3458 10.1456 15.461 10.0876 15.5899C10.0297 15.7189 9.9997 15.8586 9.9997 16C9.9997 16.1414 10.0297 16.2811 10.0876 16.4101C10.1456 16.539 10.2303 16.6542 10.336 16.748L19.336 24.748C19.4801 24.876 19.6582 24.9596 19.8487 24.9888C20.0393 25.0179 20.2342 24.9914 20.41 24.9124C20.5858 24.8333 20.735 24.7052 20.8397 24.5433C20.9444 24.3814 21.0001 24.1928 21 24Z" fill="white"/>
</g>
<defs>
<clipPath id="clip0_534_467">
<rect width="32" height="32" fill="white"/>
</clipPath>
</defs>
</svg>
